<svg xmlns="http://www.w3.org/2000/svg" width="281.062" height="302.495" viewBox="0 0 281.062 302.495">
  <g id="Group_1034" data-name="Group 1034" transform="translate(-339.625 -115.401)">
    <g id="Group_1033" data-name="Group 1033" transform="translate(157.194 220.505)">
      <g id="Group_1030" data-name="Group 1030" transform="translate(356.809 -104.434)">
        <path id="Path_2684" data-name="Path 2684" d="M726.065,238.633l5.063.8-9.593.266v1.066q2.771-.906,2.132,1.066l-3.2.533.533-1.332-1.332-.8-.533,1.6-1.6-.533v.533q1.386-.373.8,1.066a1.807,1.807,0,0,1-2.4-1.066l-.266,1.6,3.731.266-2.132.533,3.2.8.266-1.066h4v2.132h2.132v2.132H729v2.132h2.132q-1.173,2.985,1.865,2.132l2.4.533v2.665h1.865q-.426,1.759,2.4,1.066v2.132h2.132v2.132q3.2-1.066,2.132,2.132h2.931l1.332.533v1.6q2.984-1.013,2.132,1.6h2.132q-.64,1.972,2.132,1.066v1.6h1.865l1.332.533q-.693,2.185,1.066,1.6v2.132H763.9l1.332.533v1.6q2.984-1.013,2.132,1.6h2.4l1.865-.533q-.533,1.6,1.066,1.066V279.4l1.066,1.865,2.4.533.266-.8-1.332-1.865,2.4,2.931-.533,2.4,1.332-.533V285l2.132.533L779.36,283.4l33.309,33.309a17.02,17.02,0,0,1,4.264,7.994v8.527a23.027,23.027,0,0,1-5.862,9.593l-44.768,45.3v.8h-1.066q.586,1.439-.8,1.066L739.389,416.1a15.538,15.538,0,0,1-7.994,3.731h-7.461l-5.6-3.464q-3.464-4.264-2.132-13.324a11,11,0,0,1,5.063-7.728,44.111,44.111,0,0,0,13.057-9.86L773.5,345.223l1.6-1.066,1.332-2.132q1.439.586,1.066-.8a40.5,40.5,0,0,0,10.126-12.258l-5.862-7.994L739.389,278.6,721.8,263.149a17.546,17.546,0,0,1-8.794-5.6l-2.132-4.264v-1.066l.533-3.731-.533-1.6,3.464-4.53,4.8-2.665,6.4-.533ZM714.607,242.9l-.533,1.066h1.6Zm-.533,1.066-1.066,1.066q.533,1.066-.533.533v.533l1.6-.533Zm67.151,42.1v1.6l2.132,1.066h.533Z" transform="translate(-710.876 -238.633)" fill="#142743" stroke="#142743" stroke-width="1.256"/>
      </g>
      <path id="Path_2689" data-name="Path 2689" d="M313.944,410.7l.533.533H498.344l.8.8-7.728,2.4-14.923,2.132-15.455,3.731-28.246,9.593-10.659,5.329-3.731,1.066-2.132-1.6q-2.5.693-3.2-.533l-101.793-.533a11.813,11.813,0,0,1-7.195-4.53q-2.825-2.771-2.665-8.527a10.419,10.419,0,0,1,4-6.662l3.731-2.132Z" transform="translate(-118.352 -442.12)" fill="#142743" stroke="#142743" stroke-width="1.256"/>
      <path id="Path_2694" data-name="Path 2694" d="M481.3,447.123l1.865.8-16.255,7.195-.8-.266-.8,1.332-3.731,2.132-.8-.266q.426,1.226-.8.8l-22.917,14.39-19.986,15.988q.586,1.439-.8,1.066l-15.189,14.656L377.11,531.6l-19.719,27.713-17.054,28.779-13.324,27.18L325.947,619l-4.8,9.06-1.332,4.53-8.794-10.925-6.4-11.725-2.665-9.593-.533-11.725a52.352,52.352,0,0,1,8.527-20.785l13.857-16.521,33.309-33.842,17.054-14.923L408.287,477.5a271.272,271.272,0,0,1,54.361-27.713l-.266.8.266.8q.693-1.172,1.332.266l-1.066.533.533,2.4,2.132,1.066.8-1.6,1.6-.533h1.066l1.865-.8.266-1.332.266,1.066,2.665-1.066.8-2.132.266,1.066q1.6.693,1.066-1.332Zm-18.387,8.527-1.066,1.066.533.533,2.132-1.066Z" transform="translate(-118.364 -463.088)" fill="#142743" stroke="#142743" stroke-width="1.256"/>
      <path id="Path_2696" data-name="Path 2696" d="M676.393,458.427l1.332.266-1.6,1.066,2.132.266.8,2.132,1.6.533.8-.266a186.408,186.408,0,0,0-23.45,26.114l-9.593,15.456-7.994,16.521-3.2,11.725-.533,7.461-.533.533v6.4l-.533.533-.533,13.324-.533.533v26.114l.533.533v20.252l-.533.533v4.264l-.533.533-.533,5.862-2.132,6.928a47.7,47.7,0,0,1-12.524,18.387,69.613,69.613,0,0,1-26.647,15.988l.266-.8,1.066-5.862v-4.264l.533-.533v-4.264l.533-.533.533-11.725,1.6-7.994,2.665-25.049,6.4-29.312,5.862-16.521.533-3.2,10.659-25.581,12.258-22.917a129.174,129.174,0,0,1,27.447-32.243Z" transform="translate(-285.742 -469.595)" fill="#142743" stroke="#142743" stroke-width="1.256"/>
      <path id="Path_2698" data-name="Path 2698" d="M661.713,468.475l-1.066,1.6-1.865.533q.693,1.6-1.332,1.066L655.584,473l.266.8-2.931.533q.586,1.439-.8,1.066l-1.332,1.865,3.731,2.132-1.066.533.266,1.332,1.066-.533L651.054,485l-11.991,11.458-10.925,13.057h-2.132l-4.8-1.6h-2.665l-1.865-1.332,1.066-.266a48.9,48.9,0,0,1,9.859-11.725l23.983-19.719Z" transform="translate(-299.841 -475.379)" fill="#142743" stroke="#142743" stroke-width="1.256"/>
      <path id="Path_2700" data-name="Path 2700" d="M314.9,497.362l.533.533h83.673l.8.8-4.53,4L370.863,518.68l-3.2,3.2-3.731,1.066-2.132-1.066h-7.994l-2.132.533-2.132-.533-.533.533H338.886l-.533-.533h-7.994l-.533.533H317.568l-.533-.533-5.862-.533a13.009,13.009,0,0,1-6.662-5.063q-3.091-3.038-2.132-10.126a13.009,13.009,0,0,1,5.063-6.662l3.2-1.6Q314,498.854,314.9,497.362Z" transform="translate(-118.778 -492.009)" fill="#142743" stroke="#142743" stroke-width="1.256"/>
      <path id="Path_2701" data-name="Path 2701" d="M563.438,586.535q3.091,1.759,8.527,1.066l3.464,2.4-.533,2.665-3.2,4.264a62.567,62.567,0,0,1-7.994,14.39l-5.329,12.524-2.931-.533h-6.4l-.533-.533h-6.4l-.8-.8v-2.132l6.4-11.192Z" transform="translate(-256.46 -543.343)" fill="#142743" stroke="#142743" stroke-width="1.256"/>
      <path id="Path_2703" data-name="Path 2703" d="M464.638,722.18l6.928.533.533.533h5.862l2.665.533,1.865,1.332-.533,4.264L474.5,748.028a36.506,36.506,0,0,1-3.731,12.258l-2.132,9.06-2.132,5.329-1.066,6.4-1.6,3.731-3.2,15.456-5.862,17.854-15.722-2.665-5.329-1.6-2.931-1.865v-7.994l1.6-7.994,7.461-21.851L452.647,744.3l9.06-18.12Z" transform="translate(-192.834 -621.429)" fill="#142743" stroke="#142743" stroke-width="1.256"/>
      <path id="Path_15948" data-name="Path 15948" d="M720.2,239.889l1.6.533h9.06l1.332-.533q-.586,1.439.8,1.066h2.132l4.53,3.464.266.8.533-.533,11.991,11.991q-.373,1.226.8.8l6.129,6.129-.266.8h1.066l2.931,2.931q-.266,2.132,1.332,2.4h.8V270.8H766.3v1.066q1.439-.586,1.066.8l6.662,6.662h.8l2.4,3.731.8-.266,1.066,1.6,1.332,1.865-3.464-1.066q.533-2.5-1.332-3.2-2.345.8-1.865-.8a1.807,1.807,0,0,1-1.066-2.4q-1.6.533-1.066-1.066H770.3l-2.931.533v-1.6h-2.132q.8-1.972-.8-1.6l-.533-.533h-5.063V272.4h-1.066q.8-1.972-.8-1.6l-2.4-.533v-1.6h-1.865q.426-1.705-2.4-1.066V266h-2.132q.8-2.025-.8-1.6l-3.464-.533V261.74h-2.132v-2.132q-3.2,1.066-2.132-2.132H737.79q.426-1.705-2.4-1.066v-2.665h-1.865l-2.4-.533v-2.132H729v-2.132h-2.132v-2.132q-3.2,1.066-2.132-2.132h-4.264q.586,1.439-.8,1.066l-2.4-.8,2.132-.533-3.464-.266-1.865.533-.8,2.132-1.6-.533-.533,1.066-.266-.8q.693-1.492,1.332-.266,1.226.426.8-.8l1.332-1.865,1.332.533-.266-1.6-.8.266q1.172-2.025,2.4.8,2.025.533,1.332-1.066l-1.066-.266,2.4-1.332,1.332.8-.533,1.332,3.2-.533v-1.066h-2.132q.693-1.6-1.332-1.066Z" transform="translate(-354.067 -343.79)" fill="#142743" stroke="#142743" stroke-width="1.256"/>
      <g id="Group_1031" data-name="Group 1031" transform="translate(184.134 -70.142)">
        <path id="Path_2688" data-name="Path 2688" d="M317.534,319.8l17.587.533,1.6-.533.533.533h98.6q.906-1.439,4.264-.533l.533.533,17.854.266q-1.173.693.266,1.332H460.9l2.931,1.066.266,1.066.266-1.066h1.6q-.693,2.185,1.066,1.6v2.132h1.865l2.4,1.066q-.693,1.759,1.865,1.066l2.132.533,4.8-1.066h2.132l14.123,10.392q2.025,1.173,1.6,4.8-2.238,2.292-7.728,1.332l-.533-.533H475.819l-.533-.533H318.6l-1.066.533-.533-.533h-4.264a13.009,13.009,0,0,1-6.662-5.063l-2.132-4.8v-4.8l4.53-6.129,3.731-2.132Z" transform="translate(-303.943 -319.446)" fill="#142743" stroke="#142743" stroke-width="1.256"/>
        <path id="Path_15958" data-name="Path 15958" d="M667.717,321.527l17.054,1.066,3.464,2.931,4.8,5.329-1.865-1.332-1.6.533-2.132-.533-4.8,1.066-2.4-.533q.586-1.439-.8-1.066-1.066-1.492-3.464-1.066V325.79q-1.759.586-1.066-1.6h-1.6l-.266,1.066-.266-1.066-2.931-1.066h-2.132l-.8-.8Z" transform="translate(-512.895 -320.644)" fill="#142743" stroke="#142743" stroke-width="1.256"/>
      </g>
      <path id="Path_15984" data-name="Path 15984" d="M737.3,428.284h3.731l3.464,1.865-.8.266-1.332-.533-.266,1.066-1.066-.533v1.066a43.011,43.011,0,0,0-14.39,6.928l-17.587,13.324-10.126,9.06,1.6-2.665-.8-.266.266-1.332.8-.266-3.731-2.132,1.332-1.865q1.226.426.8-.8h-1.066q.693-1.439,1.332-.266l2.931-.8-1.332-.8-.8.266,1.865-1.332,1.066.533.533-1.6v1.066q1.759.586,1.332-.8l-.266-.8,1.066.533.533-1.6v1.066l1.332-.8q-1.226-.64.266-1.332l1.066-.533.8.266,1.332-1.865,16.788-10.392-1.066-.533,2.4-1.332Zm-33.842,27.18-.533.533q-1.6-.533-1.066,1.6h.533q-.533-1.6,1.066-1.066Z" transform="translate(-346.114 -452.243)" fill="#142743" stroke="#132742" stroke-width="1.256"/>
      <path id="Path_15985" data-name="Path 15985" d="M713.852,434.564l.8.266-4,2.4-4.264,1.066-6.4,3.2v-.533l.8-.266-1.865-.8-5.063,1.865q.586,1.759-.8,1.332l-1.332.266q.426,1.226-.8.8l-.533,1.6-1.332-.533-.266-1.066-.8,1.865.266.8-1.6-.533-1.6.533-1.332.266,1.332.8,1.066-.533v.533l-4.264,2.132v-1.066l-2.132,1.066-.266-.8q.64-1.332,2.665-.8.533-1.6-1.066-1.066v-1.865l-.266-.8.8-.266-1.6-.533.533-1.066-.266-.8,1.066.533.266-1.066,2.4.533v-.533l-.8-.266,5.6-1.332,1.066.533V439.36l2.132.533v-1.066q1.226-.373.8.8l1.066-.533-.266-.8,2.132.533.266-1.066,5.063-.533q.8,1.865,1.6.533l4-1.332-1.066-.533a14.834,14.834,0,0,1,7.728-.8Z" transform="translate(-335.992 -455.858)" fill="#142743" stroke="#132742" stroke-width="1.256"/>
      <path id="Path_15988" data-name="Path 15988" d="M802.053,439.588l-2.132,2.665-1.6,1.066-5.862,5.329.533-1.6-1.865,1.332.533,1.332h-.8L778.07,462.5l9.86-10.392-.8-.8-1.865-.8q.693-2.238-1.865-1.332v-.533l1.332-.8-1.066-.533,5.063-2.931,2.4,1.332-1.066.533q1.066,2.4,2.132.533-.373-1.386,1.066-.8l.266,1.066,1.066-1.6-.8-.266,1.332-1.865.266,1.332-.266.8,5.6-4.53-1.066-.533.8-.266Q801.253,441.453,802.053,439.588Z" transform="translate(-392.749 -458.75)" fill="#142743" stroke="#132742" stroke-width="1.256"/>
    </g>
  </g>
</svg>
