<svg xmlns="http://www.w3.org/2000/svg" width="19" height="18.976" viewBox="0 0 19 18.976">
  <path id="Path_1078" data-name="Path 1078" d="M3,7v8M7.5,7v8m5-8v8M17,7v8M1,16.6v.8a2.484,2.484,0,0,0,.109,1.054,1,1,0,0,0,.437.437A2.484,2.484,0,0,0,2.6,19H17.4a2.484,2.484,0,0,0,1.054-.109,1,1,0,0,0,.437-.437A2.484,2.484,0,0,0,19,17.4v-.8a2.484,2.484,0,0,0-.109-1.054,1,1,0,0,0-.437-.437A2.484,2.484,0,0,0,17.4,15H2.6a2.484,2.484,0,0,0-1.054.109,1,1,0,0,0-.437.437A2.485,2.485,0,0,0,1,16.6ZM9.653,1.077l-7.4,1.644a2.344,2.344,0,0,0-.837.269,1,1,0,0,0-.334.417A2.344,2.344,0,0,0,1,4.283V5.4a2.484,2.484,0,0,0,.109,1.054,1,1,0,0,0,.437.437A2.484,2.484,0,0,0,2.6,7H17.4a2.484,2.484,0,0,0,1.054-.109,1,1,0,0,0,.437-.437A2.484,2.484,0,0,0,19,5.4V4.284a2.342,2.342,0,0,0-.081-.876,1,1,0,0,0-.334-.417,2.343,2.343,0,0,0-.837-.269l-7.4-1.644a2.083,2.083,0,0,0-.26-.049,1,1,0,0,0-.175,0A2.083,2.083,0,0,0,9.653,1.077Z" transform="translate(-0.5 -0.524)" fill="none" stroke="#000" stroke-linecap="round" stroke-linejoin="round" stroke-width="1"/>
</svg>
