<svg xmlns="http://www.w3.org/2000/svg" width="34.658" height="23.298" viewBox="0 0 34.658 23.298">
  <path id="bike-svgrepo-com" d="M27.554,58.3a7.089,7.089,0,0,0-1.714.193l-2.188-5.882h.713a4.252,4.252,0,0,0,2.988-1.194l.755-.724A.863.863,0,1,0,26.9,49.454l-.755.716a2.53,2.53,0,0,1-1.782.706H22.4a.89.89,0,0,0-.811,1.195l.833,2.236c-.005,0-.011.016-.016.016s0,.016-.006.016H11.326l-1.5-2.521,1.625-.565a.844.844,0,0,0-.281-1.647H6.417a1.192,1.192,0,0,0-1.209,1.187,1.855,1.855,0,0,0,2.479,1.753l.474-.165L9.678,54.92l-1.166,3.5a7.1,7.1,0,1,0-1.64,14.063c.078,0,.155,0,.232,0a7.055,7.055,0,0,0,5.1-2.169,7.146,7.146,0,0,0,1.949-4.084h1.391a1.861,1.861,0,0,0,1.113.419,1.715,1.715,0,0,0,1.716-1.712,1.7,1.7,0,0,0-.224-.843l4.853-8.231,1.218,3.265a7.1,7.1,0,1,0,3.33-.831ZM20.89,56.071l-4.225,7.167s0-.007,0-.007-.01.011-.015.011L12.36,56.071H20.89Zm-10.041.809L15.164,64.1a2.3,2.3,0,0,0-.163.4h-.846a7.155,7.155,0,0,0-4-5.541ZM8.593,64.5a1.051,1.051,0,0,0-.2-.258l1.023-3.073a4.91,4.91,0,0,1,2.4,3.331Zm1.956,4.209A4.794,4.794,0,1,1,7.1,60.581l.158,0a4.8,4.8,0,0,1,.512.045L6.74,63.734a1.711,1.711,0,0,0,.39,3.378,1.619,1.619,0,0,0,1.494-.883h3.2A4.782,4.782,0,0,1,10.549,68.707Zm17,1.491a4.795,4.795,0,0,1-2.513-8.879l1.627,4.362a.866.866,0,0,0,1.622-.605l-1.636-4.384a4.8,4.8,0,1,1,.9,9.506Z" transform="translate(0 -49.208)"/>
</svg>
