<svg xmlns="http://www.w3.org/2000/svg" width="19.5" height="21.5" viewBox="0 0 19.5 21.5">
  <g id="Group_800" data-name="Group 800" transform="translate(-0.25 -0.25)">
    <path id="Path_292" data-name="Path 292" d="M1.093,8.4H18.917" fill="none" stroke="#130f26" stroke-linecap="round" stroke-linejoin="round" stroke-width="1.5"/>
    <path id="Path_293" data-name="Path 293" d="M14.442,12.31h.009" fill="none" stroke="#130f26" stroke-linecap="round" stroke-linejoin="round" stroke-width="1.5"/>
    <path id="Path_294" data-name="Path 294" d="M10,12.31h.009" fill="none" stroke="#130f26" stroke-linecap="round" stroke-linejoin="round" stroke-width="1.5"/>
    <path id="Path_295" data-name="Path 295" d="M5.558,12.31h.009" fill="none" stroke="#130f26" stroke-linecap="round" stroke-linejoin="round" stroke-width="1.5"/>
    <path id="Path_296" data-name="Path 296" d="M14.442,16.2h.009" fill="none" stroke="#130f26" stroke-linecap="round" stroke-linejoin="round" stroke-width="1.5"/>
    <path id="Path_297" data-name="Path 297" d="M10,16.2h.009" fill="none" stroke="#130f26" stroke-linecap="round" stroke-linejoin="round" stroke-width="1.5"/>
    <path id="Path_298" data-name="Path 298" d="M5.558,16.2h.009" fill="none" stroke="#130f26" stroke-linecap="round" stroke-linejoin="round" stroke-width="1.5"/>
    <path id="Path_299" data-name="Path 299" d="M14.044,1V4.291" fill="none" stroke="#130f26" stroke-linecap="round" stroke-linejoin="round" stroke-width="1.5"/>
    <path id="Path_300" data-name="Path 300" d="M5.965,1V4.291" fill="none" stroke="#130f26" stroke-linecap="round" stroke-linejoin="round" stroke-width="1.5"/>
    <path id="Path_301" data-name="Path 301" d="M14.238,2.579H5.771C2.834,2.579,1,4.215,1,7.222v9.05C1,19.326,2.834,21,5.771,21h8.458C17.175,21,19,19.355,19,16.347V7.222C19.009,4.215,17.184,2.579,14.238,2.579Z" fill="none" stroke="#130f26" stroke-linecap="round" stroke-linejoin="round" stroke-width="1.5" fill-rule="evenodd"/>
  </g>
</svg>
