<svg xmlns="http://www.w3.org/2000/svg" width="20.625" height="20.625" viewBox="0 0 20.625 20.625">
  <path id="Path_1077" data-name="Path 1077" d="M7.38,7.853a14.6,14.6,0,0,0,2.846,4.01,14.6,14.6,0,0,0,4.01,2.846,1.7,1.7,0,0,0,.266.113,1.046,1.046,0,0,0,.862-.147,2.018,2.018,0,0,0,.238-.219,5.005,5.005,0,0,1,.7-.639,2,2,0,0,1,2.18,0,5.005,5.005,0,0,1,.7.639l.195.195a5,5,0,0,1,.941,1.083,2,2,0,0,1,0,1.805,5,5,0,0,1-.941,1.083l-.158.158a5.521,5.521,0,0,1-1.154,1,3.377,3.377,0,0,1-1.478.384,4.274,4.274,0,0,1-1.26-.242,19.038,19.038,0,0,1-8.284-4.873A19.039,19.039,0,0,1,2.171,6.761,4.274,4.274,0,0,1,1.93,5.5a3.377,3.377,0,0,1,.384-1.478,5.528,5.528,0,0,1,1-1.154l.158-.158A5,5,0,0,1,4.551,1.77a2,2,0,0,1,1.805,0,5,5,0,0,1,1.083.942l.195.195a5.019,5.019,0,0,1,.639.7,2,2,0,0,1,0,2.18,5.019,5.019,0,0,1-.639.7,2.021,2.021,0,0,0-.219.238,1.046,1.046,0,0,0-.147.862A1.7,1.7,0,0,0,7.38,7.853Z" transform="translate(-0.93 -0.535)" fill="none" stroke="#000" stroke-linecap="round" stroke-linejoin="round" stroke-width="2"/>
</svg>
