<svg id="car-hatchback-svgrepo-com" xmlns="http://www.w3.org/2000/svg" width="43.462" height="20.971" viewBox="0 0 43.462 20.971">
  <path id="Path_657" data-name="Path 657" d="M6.7,11.558c-1.907,0-3.452,2.107-3.452,4.706S4.791,20.971,6.7,20.971s3.452-2.107,3.452-4.706S8.6,11.558,6.7,11.558Zm28.631,2.459V15.71H34.087a2.1,2.1,0,0,1,1.242-1.693Zm-1.245,2.8h1.245v1.693a2.1,2.1,0,0,1-1.245-1.693Zm2.055,1.7V16.819h1.242a2.115,2.115,0,0,1-1.242,1.693Zm1.242-2.8H36.139V14.023a2.093,2.093,0,0,1,1.242,1.693Zm-31.089-1.7V15.71H5.05a2.1,2.1,0,0,1,1.242-1.693Zm-1.242,2.8H6.291v1.693A2.086,2.086,0,0,1,5.05,16.815Zm2.052,1.7V16.819H8.343A2.108,2.108,0,0,1,7.1,18.512Zm1.245-2.8H7.1V14.023a2.1,2.1,0,0,1,1.242,1.693ZM26.029,6.167a4.459,4.459,0,0,1,1.631-.135C23.4,2.98,21.724,1,16.733,1.4L17.42,7.6l8.217.424a3.251,3.251,0,0,1-.131-.747c-.039-.839-.032-.94.524-1.114ZM15.478,1.509l.891,6.013L7.834,7.05C6.956,7,6.8,6.476,7.335,5.468a13.417,13.417,0,0,1,.817-1.36c2.207-3.212,4.4-2.546,7.326-2.6ZM43.3,13.155H43.04a7.571,7.571,0,0,0-.959-2.667c-1.04-1.765-1.514-1.543-3.06-1.924L30.37,6.341a27.644,27.644,0,0,0-7.064-4.919A14.15,14.15,0,0,0,16.029,0,30.79,30.79,0,0,0,11.144.4,13.731,13.731,0,0,0,8.679.853,18.069,18.069,0,0,0,5.835,1.919L2.368,4.648C1.346,5.454,1.127,6.394,1,7.932l-.488,5.68H0v3.139c.071,1.056.375,1.215,1.019,1.215h.838c-.325-9.929,9.922-11.626,9.7.786H31.169c-1.319-8.559,5.012-11.53,8.122-6.635a10.406,10.406,0,0,1,1.189,5.931h2.267a1.251,1.251,0,0,0,.428-.473c.371-.69.29-2.768.262-3.969,0-.323.071-.453-.134-.453Zm-7.57-1.6c-1.907,0-3.452,2.107-3.452,4.706s1.546,4.706,3.452,4.706,3.452-2.107,3.452-4.706-1.546-4.706-3.452-4.706Z" transform="translate(-0.002 0)" fill-rule="evenodd"/>
</svg>
