<svg width="25" height="25" viewBox="0 0 25 25" fill="none" xmlns="http://www.w3.org/2000/svg">
<path fill-rule="evenodd" clip-rule="evenodd" d="M15.4445 13.3656C15.4445 12.8133 15.8922 12.3656 16.4445 12.3656H16.4535C17.0058 12.3656 17.4535 12.8133 17.4535 13.3656C17.4535 13.9179 17.0058 14.3656 16.4535 14.3656H16.4445C15.8922 14.3656 15.4445 13.9179 15.4445 13.3656Z" fill="black"/>
<path fill-rule="evenodd" clip-rule="evenodd" d="M11.4356 13.3656C11.4356 12.8133 11.8833 12.3656 12.4356 12.3656H12.4446C12.9969 12.3656 13.4446 12.8133 13.4446 13.3656C13.4446 13.9179 12.9969 14.3656 12.4446 14.3656H12.4356C11.8833 14.3656 11.4356 13.9179 11.4356 13.3656Z" fill="black"/>
<path fill-rule="evenodd" clip-rule="evenodd" d="M7.42659 13.3656C7.42659 12.8133 7.8743 12.3656 8.42659 12.3656H8.43559C8.98787 12.3656 9.43559 12.8133 9.43559 13.3656C9.43559 13.9179 8.98787 14.3656 8.43559 14.3656H8.42659C7.8743 14.3656 7.42659 13.9179 7.42659 13.3656Z" fill="black"/>
<path fill-rule="evenodd" clip-rule="evenodd" d="M19.0458 6.40994C15.4374 2.80017 9.57417 2.80017 5.96582 6.40994C3.13993 9.23528 2.52609 13.4235 4.11215 16.851C4.11747 16.8625 4.12251 16.8741 4.12724 16.8859C4.21941 17.1149 4.21734 17.3744 4.21319 17.5212C4.20798 17.7055 4.1876 17.9178 4.16243 18.1338C4.13864 18.338 4.10842 18.563 4.07771 18.7917L4.07133 18.8393C4.03806 19.0871 4.00419 19.3415 3.97462 19.5963C3.91466 20.113 3.87701 20.5956 3.89376 20.9816C3.90211 21.174 3.92314 21.3165 3.94999 21.4142C3.95904 21.4471 3.96732 21.4698 3.97343 21.4844C3.98804 21.4905 4.0107 21.4988 4.04362 21.5078C4.14135 21.5346 4.28392 21.5556 4.47628 21.564C4.86231 21.5807 5.34485 21.543 5.86154 21.4831C6.1163 21.4536 6.37069 21.4197 6.6185 21.3865L6.66573 21.3802C6.89451 21.3495 7.1196 21.3193 7.32387 21.2955C7.53985 21.2704 7.75216 21.25 7.93642 21.2449C8.0832 21.2407 8.34268 21.2387 8.57161 21.3309C8.5833 21.3356 8.59487 21.3406 8.60631 21.3459C12.0345 22.9313 16.221 22.3184 19.0458 19.4922C22.6546 15.8828 22.6618 10.0254 19.0458 6.40994ZM20.1065 5.34935C15.9123 1.15365 9.09909 1.15369 4.90495 5.34948C1.64091 8.61302 0.919657 13.4374 2.714 17.4005C2.71454 17.418 2.71479 17.4436 2.71379 17.4788C2.71049 17.5957 2.69635 17.7556 2.67251 17.9602C2.65031 18.1508 2.62177 18.3633 2.59047 18.5964L2.58466 18.6397C2.55147 18.887 2.51592 19.1536 2.48462 19.4234C2.42285 19.9557 2.37301 20.5361 2.39517 21.0466C2.40628 21.3026 2.4363 21.5668 2.50363 21.8117C2.56942 22.0511 2.68581 22.3275 2.90816 22.5499C3.13057 22.7721 3.40726 22.8886 3.64652 22.9543C3.8914 23.0215 4.15551 23.0515 4.41139 23.0626C4.92185 23.0847 5.50205 23.0349 6.0343 22.9731C6.304 22.9419 6.57063 22.9064 6.81786 22.8732L6.86078 22.8675C7.09397 22.8362 7.30657 22.8077 7.49722 22.7855C7.70186 22.7617 7.86168 22.7476 7.97857 22.7443C8.01379 22.7433 8.03946 22.7435 8.05699 22.7441C12.0204 24.5376 16.8433 23.8175 20.1066 20.5527C24.3003 16.3585 24.3092 9.55151 20.1065 5.34935Z" fill="black"/>
</svg>
