<svg width="17" height="17" viewBox="0 0 17 17" fill="none" xmlns="http://www.w3.org/2000/svg">
<path d="M10.6693 8.60145V11.4021C10.6693 13.736 9.7357 14.6696 7.4018 14.6696H4.60111C2.26721 14.6696 1.33365 13.736 1.33365 11.4021V8.60145C1.33365 6.26755 2.26721 5.33398 4.60111 5.33398H7.4018C9.7357 5.33398 10.6693 6.26755 10.6693 8.60145Z" stroke="#6B7280" stroke-width="1.00024" stroke-linecap="round" stroke-linejoin="round"/>
<path d="M14.6702 4.60145V7.40213C14.6702 9.73604 13.7367 10.6696 11.4028 10.6696H10.6693V8.60242C10.6693 6.26852 9.7357 5.33496 7.4018 5.33496H5.33463V4.60145C5.33463 2.26755 6.26819 1.33398 8.60209 1.33398H11.4028C13.7367 1.33398 14.6702 2.26755 14.6702 4.60145Z" stroke="#6B7280" stroke-width="1.00024" stroke-linecap="round" stroke-linejoin="round"/>
</svg>
