<svg id="Group_801" data-name="Group 801" xmlns="http://www.w3.org/2000/svg" width="21.5" height="19.5" viewBox="0 0 21.5 19.5">
  <path id="Path_283" data-name="Path 283" d="M10.777,11.465A3.042,3.042,0,0,1,8.883,10.8L4.4,7.186a.75.75,0,1,1,.941-1.168L9.82,9.63a1.544,1.544,0,0,0,1.923,0L16.179,6.02a.75.75,0,1,1,.947,1.164L12.682,10.8A3.059,3.059,0,0,1,10.777,11.465Z" fill-rule="evenodd"/>
  <g id="Group_800" data-name="Group 800">
    <path id="Path_284" data-name="Path 284" d="M5.839,18h9.82s.01,0,.016,0A4.049,4.049,0,0,0,18.6,16.817,5.049,5.049,0,0,0,20,13.188V6.32c0-2.793-1.826-4.82-4.341-4.82H5.841C3.326,1.5,1.5,3.527,1.5,6.32v6.868a5.053,5.053,0,0,0,1.4,3.629A4.05,4.05,0,0,0,5.825,18Zm-.017,1.5a5.524,5.524,0,0,1-3.985-1.62A6.541,6.541,0,0,1,0,13.188V6.32C0,2.717,2.511,0,5.841,0h9.818C18.989,0,21.5,2.717,21.5,6.32v6.868a6.541,6.541,0,0,1-1.837,4.692,5.529,5.529,0,0,1-3.988,1.62H5.822Z" fill-rule="evenodd"/>
  </g>
</svg>
