<svg xmlns="http://www.w3.org/2000/svg" width="20.5" height="21.505" viewBox="0 0 20.5 21.505">
  <g id="Group_959" data-name="Group 959" transform="translate(0 0)">
    <path id="Path_649" data-name="Path 649" d="M11.717,14.291A2.179,2.179,0,0,1,13.9,16.46v3.076a.472.472,0,0,0,.47.469h1.906A2.709,2.709,0,0,0,19,17.317V8.593a1.676,1.676,0,0,0-.667-1.309L11.74,2.026a2.416,2.416,0,0,0-3.011,0L2.181,7.282A1.675,1.675,0,0,0,1.5,8.61v8.707a2.709,2.709,0,0,0,2.723,2.688H6.147a.486.486,0,0,0,.491-.479.807.807,0,0,1,.019-.171v-2.9a2.182,2.182,0,0,1,2.169-2.169Zm4.56,7.214H14.353A1.968,1.968,0,0,1,12.4,19.536V16.46a.677.677,0,0,0-.684-.669H8.831a.677.677,0,0,0-.674.669v3.066a.726.726,0,0,1-.031.215,1.989,1.989,0,0,1-1.979,1.764H4.223A4.21,4.21,0,0,1,0,17.317V8.6A3.154,3.154,0,0,1,1.259,6.1L7.794.855a3.912,3.912,0,0,1,4.88,0L19.256,6.1A3.158,3.158,0,0,1,20.5,8.582v8.735A4.21,4.21,0,0,1,16.277,21.505Z" fill-rule="evenodd"/>
  </g>
</svg>
