<svg xmlns="http://www.w3.org/2000/svg" width="18.165" height="19.91" viewBox="0 0 18.165 19.91">
  <g id="Group_960" data-name="Group 960" transform="translate(0)">
    <path id="Path_649" data-name="Path 649" d="M12.716,14.974H5.5a.75.75,0,0,1,0-1.5h7.22a.75.75,0,0,1,0,1.5Z" fill-rule="evenodd"/>
    <path id="Path_650" data-name="Path 650" d="M12.716,10.787H5.5a.75.75,0,1,1,0-1.5h7.22a.75.75,0,1,1,0,1.5Z" fill-rule="evenodd"/>
    <path id="Path_651" data-name="Path 651" d="M8.251,6.61H5.5a.75.75,0,0,1,0-1.5H8.251a.75.75,0,0,1,0,1.5Z" fill-rule="evenodd"/>
    <g id="Group_959" data-name="Group 959">
      <path id="Path_652" data-name="Path 652" d="M12.909,1.5,5.22,1.5A3.494,3.494,0,0,0,1.5,5.357v9.2A3.5,3.5,0,0,0,5.256,18.41l7.689,0a3.5,3.5,0,0,0,3.72-3.854v-9.2A3.5,3.5,0,0,0,12.909,1.5ZM5.257,19.91A5.025,5.025,0,0,1,0,14.553v-9.2A4.972,4.972,0,0,1,5.215,0l7.693,0h0a5.024,5.024,0,0,1,5.256,5.357v9.2a4.974,4.974,0,0,1-5.215,5.354Z" fill-rule="evenodd"/>
    </g>
  </g>
</svg>
