<svg xmlns="http://www.w3.org/2000/svg" width="18" height="20" viewBox="0 0 18 20">
  <path id="Path_650" data-name="Path 650" d="M4.81,0h8.381C16.28,0,18,1.78,18,4.83V15.16c0,3.1-1.72,4.84-4.809,4.84H4.81C1.77,20,0,18.26,0,15.16V4.83C0,1.78,1.77,0,4.81,0Zm.27,4.66V4.65H8.069a.785.785,0,0,1,0,1.57H5.08a.78.78,0,0,1,0-1.56Zm0,6.08h7.84a.781.781,0,0,0,0-1.561H5.08a.781.781,0,0,0,0,1.561Zm0,4.57h7.84a.79.79,0,0,0,0-1.57H5.08a.784.784,0,0,0-.75.37.8.8,0,0,0,0,.84A.777.777,0,0,0,5.08,15.31Z" fill="#130f26" fill-rule="evenodd"/>
</svg>
