<svg xmlns="http://www.w3.org/2000/svg" width="17.487" height="24.665" viewBox="0 0 17.487 24.665">
  <g id="walking-3-svgrepo-com" transform="translate(0 0)">
    <path id="Path_658" data-name="Path 658" d="M74.659,124.413l1.591-2.223a4.236,4.236,0,0,1,1.468-1.252l3.251-1.706a5.841,5.841,0,0,1,2.079-.594l.908-.026a2.07,2.07,0,0,1,1.527.57l3.094,2.777,2.68.735a.99.99,0,0,1,.7,1.166l-.009.04a.988.988,0,0,1-1.105.767l-2.159-.308a4.441,4.441,0,0,1-1.533-.516l-1.3-.88-.067,4.33a1.669,1.669,0,0,0,.167.841l4.424,7.684a1.149,1.149,0,0,1-.417,1.566l-.038.022a1.149,1.149,0,0,1-1.52-.334l-5.054-7.147-1.936,4.236a2.226,2.226,0,0,1-.536.505l-3.863,2.587a1.123,1.123,0,0,1-1.506-.238l-.043-.055a1.123,1.123,0,0,1,.2-1.585l3.332-2.56,1.929-5.452-.172-4.887-2.313.695L76,125.559a.872.872,0,0,1-1.13.079l-.024-.017A.871.871,0,0,1,74.659,124.413Z" transform="translate(-74.496 -112.898)"/>
    <path id="Path_659" data-name="Path 659" d="M200.145,4.78a2.4,2.4,0,1,1,2.012-2.739A2.4,2.4,0,0,1,200.145,4.78Z" transform="translate(-190.618 0)"/>
  </g>
</svg>
