<svg xmlns="http://www.w3.org/2000/svg" width="20" height="20.001" viewBox="0 0 20 20.001">
  <g id="Group_268" data-name="Group 268" transform="translate(-2 -2)">
    <path id="Path_1098" data-name="Path 1098" d="M18.47,16.83l.39,3.16a1,1,0,0,1-1.5.98L13.9,18.91a.5.5,0,0,1-.17-.68,6.316,6.316,0,0,0,.77-3,6.836,6.836,0,0,0-7-6.64,7.208,7.208,0,0,0-2.28.36.5.5,0,0,1-.64-.6A8.716,8.716,0,0,1,13.17,2C18.05,2,22,5.69,22,10.24A8.054,8.054,0,0,1,18.47,16.83Z" fill="#0c0507"/>
    <path id="Path_1099" data-name="Path 1099" d="M13,15.23a4.861,4.861,0,0,1-1.18,3.16A5.584,5.584,0,0,1,7.5,20.36L4.89,21.91a.625.625,0,0,1-.94-.61l.25-1.97A4.935,4.935,0,0,1,4.38,11a5.683,5.683,0,0,1,3.12-.91A5.327,5.327,0,0,1,13,15.23Z" fill="#0c0507"/>
  </g>
</svg>
