<svg xmlns="http://www.w3.org/2000/svg" width="34.624" height="25.083" viewBox="0 0 34.624 25.083">
  <path id="motorcycle-delivery-single-box-svgrepo-com" d="M26.259,9.5a4.239,4.239,0,0,0-3.043,1.06H19.078a.707.707,0,1,0,0,1.413h3.716c.272,1.015,1.694,1.766,3.465,1.766a2.191,2.191,0,0,0,1.616-.472,2,2,0,0,0,.4-1.514v-.269a1.994,1.994,0,0,0-.4-1.513A2.18,2.18,0,0,0,26.263,9.5ZM1.413,11.973a.706.706,0,0,0-.707.707v5.653a.706.706,0,0,0,.707.707h6.37c.089-1.168.768-2.673,2.109-2.811V12.68a.706.706,0,0,0-.707-.707Zm22.079,2.6c.61,4.636-.3,9.128-2.416,11.664a5,5,0,0,1-3.929,1.983,1.534,1.534,0,0,1-1.334-.845c-.6-1.042-.709-3.086.653-5.824a16.066,16.066,0,0,1-3.439.309,9.36,9.36,0,0,1-4.019-.682,3.014,3.014,0,0,1-.366-.229,2.175,2.175,0,0,1-.562-.577c-.051.024-.1.05-.146.075H.707a.707.707,0,0,0,0,1.413H5.752a9.778,9.778,0,0,0-2.9,4.046.708.708,0,0,0,.531.885l10.655,2.841h7.906a6.219,6.219,0,0,1-.041-.707c0-3.764,3.632-7.066,7.772-7.066.128,0,.249.007.371.012a13.479,13.479,0,0,0-2.839-6.81,5.4,5.4,0,0,1-.949.086A6.54,6.54,0,0,1,23.492,14.577Zm-13.4,3.048a.437.437,0,0,0-.2.054l0,0a.791.791,0,0,0-.226.192c-.01.011-.02.021-.029.033a1.645,1.645,0,0,0-.19.3,2.533,2.533,0,0,0-.168.471c-.014.052-.02.1-.03.153s-.033.134-.041.2c.006,0,.011,0,.017,0a2.385,2.385,0,0,0-.035.268c0,.719,1.313,1.154,3.841,1.154s4.638-.434,4.638-1.154-.405-1.673-.907-1.673Zm19.585,5.653c-3.2,0-6.359,2.525-6.359,5.653,0,1.936.841,2.12,1.413,2.12,1.172,0,.707-2.4,3.533-3.533a6.4,6.4,0,0,1,2.4-.435c1.278,0,2.384.3,3.1.3.541,0,.858-.17.858-.766C34.623,26.1,33.707,23.278,29.676,23.278ZM30.51,28.5a4.915,4.915,0,0,0-1.722.328,3.91,3.91,0,0,0-.364.168,1.411,1.411,0,1,0,2.087-.5Zm-26.134.021a4.94,4.94,0,0,0,9.551,2.513A1.379,1.379,0,0,1,13.675,31l-1.818-.486a2.818,2.818,0,0,1-5.5-.88,2.757,2.757,0,0,1,.063-.57Zm27.937.121a2.817,2.817,0,1,1-5.291,1.932l-.05.1a3.012,3.012,0,0,1-1.448,1.63,4.925,4.925,0,0,0,8.994-3.621,2.772,2.772,0,0,1-.755.106,9.479,9.479,0,0,1-1.317-.131Zm-24.52.791a1.38,1.38,0,0,0-.021.2,1.411,1.411,0,0,0,2.724.518Z" transform="translate(0 -9.5)"/>
</svg>
