<svg xmlns="http://www.w3.org/2000/svg" width="21.772" height="16.791" viewBox="0 0 21.772 16.791">
  <g id="Group_803" data-name="Group 803" transform="translate(0)">
    <path id="Path_285" data-name="Path 285" d="M16.887,8.147a.75.75,0,0,1-.1-1.493,2.121,2.121,0,0,0,.048-4.194A.75.75,0,0,1,17.076.98a3.621,3.621,0,0,1-.085,7.16A.737.737,0,0,1,16.887,8.147Z" fill-rule="evenodd"/>
    <g id="Group_802" data-name="Group 802">
      <path id="Path_286" data-name="Path 286" d="M19.861,14.531a.75.75,0,0,1-.267-1.451c.678-.258.678-.543.678-.68,0-.438-.557-.744-1.655-.908a.75.75,0,1,1,.223-1.484c2.423.363,2.932,1.5,2.932,2.392a2.2,2.2,0,0,1-1.644,2.082A.759.759,0,0,1,19.861,14.531Z" fill-rule="evenodd"/>
    </g>
    <path id="Path_287" data-name="Path 287" d="M10.887,11.914c-2.376,0-5.209.292-5.209,1.682s2.833,1.7,5.209,1.7,5.208-.291,5.208-1.678C16.095,12.209,13.263,11.914,10.887,11.914Zm0,4.877c-1.659,0-6.709,0-6.709-3.195s5.05-3.182,6.709-3.182,6.708,0,6.708,3.2C17.595,16.791,12.722,16.791,10.887,16.791Z" fill-rule="evenodd"/>
    <path id="Path_288" data-name="Path 288" d="M10.887,1.5A3.072,3.072,0,0,0,7.819,4.569a3.054,3.054,0,0,0,3.043,3.069l.025.75v-.75a3.069,3.069,0,1,0,0-6.138Zm0,7.638H10.86A4.555,4.555,0,0,1,6.319,4.566a4.569,4.569,0,1,1,4.568,4.572Z" fill-rule="evenodd"/>
    <path id="Path_289" data-name="Path 289" d="M4.886,8.146a.737.737,0,0,1-.1-.007A3.621,3.621,0,0,1,4.7.979a.75.75,0,0,1,.244,1.48,2.121,2.121,0,0,0,.047,4.194.75.75,0,0,1-.1,1.493Z" fill-rule="evenodd"/>
    <path id="Path_290" data-name="Path 290" d="M1.912,14.531a.759.759,0,0,1-.267-.049A2.2,2.2,0,0,1,0,12.4c0-.89.509-2.029,2.933-2.392a.75.75,0,1,1,.222,1.484c-1.1.164-1.655.47-1.655.908,0,.137,0,.421.679.68a.75.75,0,0,1-.267,1.451Z" fill-rule="evenodd"/>
  </g>
</svg>
