<svg xmlns="http://www.w3.org/2000/svg" width="19.5" height="21.652" viewBox="0 0 19.5 21.652">
  <g id="Group_1000" data-name="Group 1000" transform="translate(-2.25 -1.26)">
    <path id="Path_767" data-name="Path 767" d="M18,18.86h-.76a2.988,2.988,0,0,0-2.12.87l-1.71,1.69a2.022,2.022,0,0,1-2.83,0L8.87,19.73a3,3,0,0,0-2.12-.87H6a2.983,2.983,0,0,1-3-2.97V4.98A2.983,2.983,0,0,1,6,2.01H18a2.983,2.983,0,0,1,3,2.97V15.89A2.99,2.99,0,0,1,18,18.86Z" fill="none" stroke="#0c0507" stroke-linecap="round" stroke-linejoin="round" stroke-miterlimit="10" stroke-width="1.5"/>
    <path id="Path_768" data-name="Path 768" d="M12,10A2.33,2.33,0,1,0,9.67,7.67,2.33,2.33,0,0,0,12,10Z" fill="none" stroke="#0c0507" stroke-linecap="round" stroke-linejoin="round" stroke-width="1.5"/>
    <path id="Path_769" data-name="Path 769" d="M16,15.66c0-1.8-1.79-3.26-4-3.26s-4,1.46-4,3.26" fill="none" stroke="#0c0507" stroke-linecap="round" stroke-linejoin="round" stroke-width="1.5"/>
  </g>
</svg>
