<svg xmlns="http://www.w3.org/2000/svg" width="24" height="24" viewBox="0 0 24 24">
  <g id="Group_207" data-name="Group 207" transform="translate(-285.969 -602.999)">
    <g id="fi-rr-mode-landscape" transform="translate(285.969 602.999)">
      <path id="Path_173" data-name="Path 173" d="M23,16a1,1,0,0,0-1,1v2a3,3,0,0,1-3,3H17a1,1,0,0,0,0,2h2a5.006,5.006,0,0,0,5-5V17A1,1,0,0,0,23,16Z"/>
      <path id="Path_174" data-name="Path 174" d="M1,8A1,1,0,0,0,2,7V5A3,3,0,0,1,5,2H7A1,1,0,1,0,7,0H5A5.006,5.006,0,0,0,0,5V7A1,1,0,0,0,1,8Z"/>
      <path id="Path_175" data-name="Path 175" d="M7,22H5a3,3,0,0,1-3-3V17a1,1,0,0,0-2,0v2a5.006,5.006,0,0,0,5,5H7a1,1,0,0,0,0-2Z"/>
      <path id="Path_176" data-name="Path 176" d="M19,0H17a1,1,0,0,0,0,2h2a3,3,0,0,1,3,3V7a1,1,0,0,0,2,0V5A5.006,5.006,0,0,0,19,0Z"/>
    </g>
    <path id="fi-rr-ambulance" d="M13.831,8.592,12.74,6.138A3.6,3.6,0,0,0,9.45,4H3A3,3,0,0,0,0,7v4.8a1.8,1.8,0,0,0,1.243,1.7,2.04,2.04,0,0,0-.043.4,2.1,2.1,0,1,0,4.2,0,2.079,2.079,0,0,0-.025-.3H9.025A2.079,2.079,0,0,0,9,13.9a2.1,2.1,0,0,0,4.2,0,2.04,2.04,0,0,0-.043-.4A1.8,1.8,0,0,0,14.4,11.8v-.527A6.558,6.558,0,0,0,13.831,8.592ZM11.644,6.626l.7,1.574H10.2a.6.6,0,0,1-.6-.6V5.211a2.4,2.4,0,0,1,2.044,1.415ZM4.2,13.9a.9.9,0,1,1-1.8,0,.851.851,0,0,1,.056-.3H4.144A.851.851,0,0,1,4.2,13.9Zm6.9.9a.9.9,0,0,1-.9-.9.851.851,0,0,1,.056-.3h1.688a.851.851,0,0,1,.056.3A.9.9,0,0,1,11.1,14.8Zm2.1-3a.6.6,0,0,1-.6.6H1.8a.6.6,0,0,1-.6-.6V7A1.8,1.8,0,0,1,3,5.2H8.4V7.6a1.8,1.8,0,0,0,1.8,1.8h2.657a5.35,5.35,0,0,1,.343,1.873Z" transform="translate(290.969 604.999)"/>
  </g>
</svg>
