<svg xmlns="http://www.w3.org/2000/svg" width="20" height="18" viewBox="0 0 20 18">
  <g id="Group_985" data-name="Group 985" transform="translate(-2 -3)">
    <path id="Path_717" data-name="Path 717" d="M16.514,3C19.96,3,22,4.979,22,8.338v.037H17.762a3.488,3.488,0,1,0,0,6.973H22v.306C22,19.014,19.964,21,16.517,21H7.484C4.036,21,2,19.014,2,15.654V8.338C2,4.979,4.036,3,7.484,3ZM12.383,6.875H6.74a.746.746,0,1,0,0,1.492H12.39a.746.746,0,1,0-.007-1.492Z"/>
    <path id="Path_718" data-name="Path 718" d="M16.037,12.3a2.018,2.018,0,0,0,2,1.6h3.25A.726.726,0,0,0,22,13.166V10.634a.728.728,0,0,0-.718-.735H17.956A1.985,1.985,0,0,0,16,11.91,2.036,2.036,0,0,0,16.037,12.3Z" opacity="0.4"/>
    <path id="Path_719" data-name="Path 719" d="M18,12.9a1,1,0,1,0-1-1A1,1,0,0,0,18,12.9Z"/>
  </g>
</svg>
