<svg xmlns="http://www.w3.org/2000/svg" width="19.997" height="20.46" viewBox="0 0 19.997 20.46">
  <g id="Group_981" data-name="Group 981" transform="translate(-2.003 -1.77)">
    <path id="Path_707" data-name="Path 707" d="M21.09,6.98c-.85-.94-2.27-1.41-4.33-1.41h-.24V5.53c0-1.68,0-3.76-3.76-3.76H11.24c-3.76,0-3.76,2.09-3.76,3.76v.05H7.24c-2.07,0-3.48.47-4.33,1.41a4.547,4.547,0,0,0-.86,3.59l.01.07.077.813a.494.494,0,0,0,.221.367c.24.157.641.416.882.549.14.09.29.17.44.25a17.165,17.165,0,0,0,5.5,1.88c.09.94.5,2.04,2.69,2.04s2.62-1.09,2.69-2.06a16.829,16.829,0,0,0,5.79-2.08c.06-.03.1-.06.15-.09a13.136,13.136,0,0,0,1.184-.771.493.493,0,0,0,.2-.346l.016-.143.05-.47c.01-.06.01-.11.02-.18A4.433,4.433,0,0,0,21.09,6.98Zm-8,6.85c0,1.06,0,1.22-1.23,1.22s-1.23-.19-1.23-1.21V12.58h2.46ZM8.91,5.57V5.53c0-1.7,0-2.33,2.33-2.33h1.52c2.33,0,2.33.64,2.33,2.33v.05H8.91Z" fill="#0c0507"/>
    <path id="Path_708" data-name="Path 708" d="M20.874,13.734a.509.509,0,0,1,.725.5L21.24,18.19c-.21,2-1.03,4.04-5.43,4.04H8.19c-4.4,0-5.22-2.04-5.43-4.03l-.341-3.748a.508.508,0,0,1,.716-.506,35.817,35.817,0,0,0,4.542,1.77.571.571,0,0,1,.369.314c.607,1.3,1.923,1.989,3.824,1.989,1.882,0,3.215-.717,3.824-2.019a.572.572,0,0,1,.37-.315A34.618,34.618,0,0,0,20.874,13.734Z" fill="#0c0507"/>
  </g>
</svg>
